<svg xmlns="http://www.w3.org/2000/svg" viewBox="0 0 128 128" width="128" height="128">
  <defs>
    <linearGradient id="bg" x1="0" y1="0" x2="0" y2="1">
      <stop offset="0%" stop-color="#1a1a2e"/>
      <stop offset="100%" stop-color="#0f0f1a"/>
    </linearGradient>
  </defs>

  <!-- Background -->
  <rect width="128" height="128" rx="16" fill="url(#bg)"/>

  <!-- Grid dividers -->
  <line x1="64" y1="14" x2="64" y2="114" stroke="#2a2a40" stroke-width="1.5"/>
  <line x1="14" y1="64" x2="114" y2="64" stroke="#2a2a40" stroke-width="1.5"/>

  <!-- Top-left pane (active) -->
  <rect x="12" y="12" width="49" height="49" rx="4" fill="#12122080"/>
  <text x="18" y="28" font-family="monospace" font-size="9" fill="#00ff41" opacity="0.9">$ agent</text>
  <rect x="18" y="33" width="28" height="2" rx="1" fill="#00ff41" opacity="0.5"/>
  <rect x="18" y="38" width="20" height="2" rx="1" fill="#00ff41" opacity="0.35"/>
  <rect x="18" y="43" width="32" height="2" rx="1" fill="#00ff41" opacity="0.25"/>
  <rect x="18" y="48" width="14" height="2" rx="1" fill="#00ff41" opacity="0.2"/>
  <!-- Cursor blink -->
  <rect x="18" y="53" width="6" height="2" rx="0.5" fill="#00ff41" opacity="0.9"/>

  <!-- Top-right pane -->
  <rect x="67" y="12" width="49" height="49" rx="4" fill="#12122080"/>
  <text x="73" y="28" font-family="monospace" font-size="9" fill="#00ff41" opacity="0.5">$ agent</text>
  <rect x="73" y="33" width="24" height="2" rx="1" fill="#00ff41" opacity="0.2"/>
  <rect x="73" y="38" width="30" height="2" rx="1" fill="#00ff41" opacity="0.15"/>
  <rect x="73" y="43" width="18" height="2" rx="1" fill="#00ff41" opacity="0.12"/>

  <!-- Bottom-left pane -->
  <rect x="12" y="67" width="49" height="49" rx="4" fill="#12122080"/>
  <text x="18" y="83" font-family="monospace" font-size="9" fill="#00ff41" opacity="0.5">$ agent</text>
  <rect x="18" y="88" width="30" height="2" rx="1" fill="#00ff41" opacity="0.2"/>
  <rect x="18" y="93" width="22" height="2" rx="1" fill="#00ff41" opacity="0.15"/>
  <rect x="18" y="98" width="26" height="2" rx="1" fill="#00ff41" opacity="0.12"/>

  <!-- Bottom-right pane -->
  <rect x="67" y="67" width="49" height="49" rx="4" fill="#12122080"/>
  <text x="73" y="83" font-family="monospace" font-size="9" fill="#00ff41" opacity="0.5">$ agent</text>
  <rect x="73" y="88" width="20" height="2" rx="1" fill="#00ff41" opacity="0.2"/>
  <rect x="73" y="93" width="28" height="2" rx="1" fill="#00ff41" opacity="0.15"/>
</svg>
